<svg xmlns="http://www.w3.org/2000/svg" viewBox="0 0 29.97 30"><defs><style>.cls-1{fill:#80bc00;}</style></defs><title>Recurso 14</title><g id="Capa_2" data-name="Capa 2"><g id="Layer_1" data-name="Layer 1"><path class="cls-1" d="M9.16,19.57a7.17,7.17,0,0,0,3.84,1,2.42,2.42,0,0,0,.73-.07l.12,0a6.38,6.38,0,0,0,2.65-.75,7.25,7.25,0,0,0,2.57-2.14l-.42-.17c-.28-.11-.57-.23-.86-.33l-.66-.24c-.61-.22-1.24-.45-1.83-.73a1.26,1.26,0,0,1-.55-.48,3.86,3.86,0,0,1-.39-1,.84.84,0,0,1,.23-.82,5.06,5.06,0,0,0,1.25-2.64,5.79,5.79,0,0,0-.05-2.48,2.55,2.55,0,0,0-1.64-1.94,3,3,0,0,0-1.57-.21,2.62,2.62,0,0,0-2.5,2.05,5.66,5.66,0,0,0-.15,2.17,4.8,4.8,0,0,0,1.23,3A1.31,1.31,0,0,1,11.4,15a1.93,1.93,0,0,1-1.15,1.29,4.37,4.37,0,0,0-.48.19l-.36.14c-.82.3-1.65.59-2.46.93a8.44,8.44,0,0,0,2.21,2"/><path class="cls-1" d="M21.23,2.9A12.65,12.65,0,0,0,16.57.45,13.32,13.32,0,0,0,11.47.1,11.79,11.79,0,0,0,7.12,1.37a11.63,11.63,0,0,0-2.7,1.85,13,13,0,0,0-3,3.86A12.79,12.79,0,0,0,0,12.93c0,.5,0,.89,0,1.28a13.63,13.63,0,0,0,1.24,4.51,13,13,0,0,0,3,4,13.1,13.1,0,0,0,3.86,2.45,13.49,13.49,0,0,0,6.61.78,11.9,11.9,0,0,0,5.84-2.28.74.74,0,0,1,.47-.18.77.77,0,0,1,.56.26c1.93,1.93,3.87,3.87,5.77,5.8a1.41,1.41,0,0,0,1.5.38,1.49,1.49,0,0,0,1-1.08,1.53,1.53,0,0,0-.42-1.43l-5.73-5.73c-.43-.41-.44-.69-.14-1.07a13,13,0,0,0,1.65-3.1A13.3,13.3,0,0,0,26,12.74a13.71,13.71,0,0,0-.62-3.83,12.81,12.81,0,0,0-4.19-6m-.95,17.16A10.24,10.24,0,0,1,13,23.15,10.3,10.3,0,0,1,2.89,13,10.3,10.3,0,0,1,13.11,2.89,10.22,10.22,0,0,1,20.34,6a9.67,9.67,0,0,1,2.81,7,9.73,9.73,0,0,1-2.87,7"/></g></g></svg>