<svg xmlns="http://www.w3.org/2000/svg" viewBox="0 0 32.86 30"><defs><style>.cls-1{fill:#80bc00;}</style></defs><title>Recurso 12</title><g id="Capa_2" data-name="Capa 2"><g id="Layer_1" data-name="Layer 1"><path class="cls-1" d="M22.75,20.16l2,2a3.54,3.54,0,0,1-3.54,3.34H9.09l-4,4.05a1.22,1.22,0,0,1-.92.41,1.33,1.33,0,0,1-1.32-1.33V25.5A3.58,3.58,0,0,1,0,22V11.27A3.54,3.54,0,0,1,3.54,7.73H5.69v2.49H3.54a1.07,1.07,0,0,0-1.09,1V22a1.1,1.1,0,0,0,1.09,1.09H5.31v2.79L8.1,23.09H21.28A1.1,1.1,0,0,0,22.37,22V20.16ZM32.86,3.54V14.27A3.58,3.58,0,0,1,30,17.74v3.17a1.54,1.54,0,0,1-.41,1,1.64,1.64,0,0,1-.95.34,1.35,1.35,0,0,1-1-.41l-4-4H11.58A3.53,3.53,0,0,1,8,14.3V3.54A3.54,3.54,0,0,1,11.58,0h17.7a3.53,3.53,0,0,1,3.58,3.54M21.35,13a.54.54,0,0,0-.54-.54H19.38a.54.54,0,0,0-.55.54v.92a.54.54,0,0,0,.55.55h1.43a.54.54,0,0,0,.54-.55Zm2.83-6.3a3.12,3.12,0,0,0-1-2.45,4.09,4.09,0,0,0-2.82-.92,4.34,4.34,0,0,0-2.69.79,2.6,2.6,0,0,0-1,2,.35.35,0,0,0,.34.38l1.6,0a.6.6,0,0,0,.58-.41,1.32,1.32,0,0,1,.31-.51,1.27,1.27,0,0,1,.85-.31,1.21,1.21,0,0,1,1,.38,1.37,1.37,0,0,1,.34,1,2.05,2.05,0,0,1-.3,1.09,2.45,2.45,0,0,1-.79.78,5.65,5.65,0,0,0-1.36,1.23,2.13,2.13,0,0,0-.34,1.16.38.38,0,0,0,.41.41H21a.4.4,0,0,0,.4-.35,1.75,1.75,0,0,1,.17-.64,1.81,1.81,0,0,1,.65-.68,4.16,4.16,0,0,0,1.43-1.23,2.94,2.94,0,0,0,.55-1.74"/></g></g></svg>