<svg xmlns="http://www.w3.org/2000/svg" viewBox="0 0 76.33 30"><defs><style>.cls-1{fill:#80bc00;}</style></defs><title>Recurso 13</title><g id="Capa_2" data-name="Capa 2"><g id="Layer_1" data-name="Layer 1"><path class="cls-1" d="M58.1,22.28H49.69a.48.48,0,0,1-.48-.48.49.49,0,0,1,.48-.48h8.36a3.29,3.29,0,0,0,2.63-3.21c.1-2.57-1.38-2.83-1.62-2.86H53.67a3.07,3.07,0,0,1-2.56-3.34,4.31,4.31,0,0,1,3.46-4.15h7.68a.48.48,0,1,1,0,.95H54.73a3.38,3.38,0,0,0-2.66,3.22.06.06,0,0,1,0,0,2.2,2.2,0,0,0,1.72,2.34h5.33s2.66.2,2.52,3.84a4.23,4.23,0,0,1-3.45,4.13H58.1"/><path class="cls-1" d="M74,22.33H66.13c-1-.11-3-.82-3-2.73s1.32-8.21,1.38-8.47a.13.13,0,0,1,0-.06c0-.13,1.19-3.13,3.72-3.13h5.58l.13,0c.1,0,2.39.71,2.39,2.68a33.21,33.21,0,0,1-.51,4.58.47.47,0,0,1-.46.39l-10.8.09a24.16,24.16,0,0,0-.48,3.87c0,1.48,1.89,1.77,2.14,1.8H74a.48.48,0,0,1,.47.48.47.47,0,0,1-.47.48m-8.53-11c0,.24-.37,1.71-.69,3.38L75,14.66a31.79,31.79,0,0,0,.43-4C75.38,9.53,74,9,73.73,8.9h-5.5c-1.77,0-2.7,2.2-2.81,2.47"/><path class="cls-1" d="M35.12,28.6H35a.49.49,0,0,1-.39-.56s.77-4.2,1.53-8.41c.38-2.1.77-4.21,1.06-5.78.15-.79.27-1.45.35-1.91a8.13,8.13,0,0,1,.18-.8h0a5.54,5.54,0,0,1,3.46-3.25h.13c.31,0,3.34,0,5.34,0h0c.47,0,2.94.93,2.65,2.89v.05L48,18.94s0,0,0,0a4.85,4.85,0,0,1-3.05,3.21l-.13,0-4.9.14h-.06A4.46,4.46,0,0,1,37,20.61c-.53,2.9-1,5.82-1.38,7.59a.47.47,0,0,1-.47.4m2.1-9.36a3.82,3.82,0,0,0,2.69,2.16l4.81-.14a4,4,0,0,0,2.35-2.5l1.32-8.08c.14-.9-1.24-1.86-1.81-1.85H41.36a4.85,4.85,0,0,0-2.7,2.62c-.08.38-.73,3.92-1.44,7.8"/><path class="cls-1" d="M28.67,5.86a1.33,1.33,0,1,1-1.33-1.33,1.33,1.33,0,0,1,1.33,1.33"/><path class="cls-1" d="M25.66,1.33A1.34,1.34,0,1,1,24.32,0a1.33,1.33,0,0,1,1.34,1.33"/><path class="cls-1" d="M22.62,5.86a1.33,1.33,0,1,1-1.33-1.33,1.33,1.33,0,0,1,1.33,1.33"/><path class="cls-1" d="M28.52,24a1.34,1.34,0,1,1-1.33-1.33A1.34,1.34,0,0,1,28.52,24"/><path class="cls-1" d="M25.65,19.75a1.34,1.34,0,1,1-1.33-1.33,1.34,1.34,0,0,1,1.33,1.33"/><path class="cls-1" d="M19.54,19.75a1.1,1.1,0,1,1-1.1-1.1,1.1,1.1,0,0,1,1.1,1.1"/><path class="cls-1" d="M22.48,24a1.1,1.1,0,1,1-1.1-1.1,1.11,1.11,0,0,1,1.1,1.1"/><path class="cls-1" d="M19.46,28.67a1.1,1.1,0,1,1-1.1-1.1,1.1,1.1,0,0,1,1.1,1.1"/><path class="cls-1" d="M16.36,24a.86.86,0,1,1-.85-.85.85.85,0,0,1,.85.85"/><path class="cls-1" d="M5.86,15.07A.86.86,0,1,1,5,14.22a.85.85,0,0,1,.85.85"/><path class="cls-1" d="M7.39,10.52a.86.86,0,1,1-.85-.85.85.85,0,0,1,.85.85"/><path class="cls-1" d="M10.28,5.86a.85.85,0,0,1-1.7,0,.85.85,0,1,1,1.7,0"/><path class="cls-1" d="M13.22,1.43a.86.86,0,1,1-.85-.85.85.85,0,0,1,.85.85"/><path class="cls-1" d="M13.3,28.67a.85.85,0,0,1-.85.85.86.86,0,1,1,.85-.85"/><path class="cls-1" d="M10.37,24a.86.86,0,1,1-1.71,0,.85.85,0,0,1,.85-.85.86.86,0,0,1,.86.85"/><path class="cls-1" d="M7.35,19.75a.86.86,0,1,1-.85-.85.85.85,0,0,1,.85.85"/><path class="cls-1" d="M5.32,24a.43.43,0,0,1-.44.44A.44.44,0,0,1,4.44,24a.44.44,0,0,1,.44-.44.44.44,0,0,1,.44.44"/><path class="cls-1" d="M2.57,19.75a.44.44,0,0,1-.43.44.44.44,0,1,1,0-.88.44.44,0,0,1,.43.44"/><path class="cls-1" d="M.88,15a.44.44,0,0,1-.44.44A.44.44,0,0,1,0,15a.44.44,0,0,1,.44-.44A.44.44,0,0,1,.88,15"/><path class="cls-1" d="M2.45,10.53A.44.44,0,1,1,2,10.09a.44.44,0,0,1,.44.44"/><path class="cls-1" d="M5.43,5.9A.44.44,0,0,1,5,6.34a.44.44,0,0,1,0-.88.44.44,0,0,1,.44.44"/><path class="cls-1" d="M13.51,19.75a1.1,1.1,0,1,1-1.1-1.1,1.1,1.1,0,0,1,1.1,1.1"/><path class="cls-1" d="M10.41,15.08A1.1,1.1,0,1,1,9.31,14a1.11,1.11,0,0,1,1.1,1.1"/><path class="cls-1" d="M13.47,10.52a1.11,1.11,0,1,1-1.11-1.1,1.11,1.11,0,0,1,1.11,1.1"/><path class="cls-1" d="M16.53,5.86a1.11,1.11,0,1,1-1.11-1.1,1.11,1.11,0,0,1,1.11,1.1"/><path class="cls-1" d="M19.42,1.35a1.1,1.1,0,1,1-1.1-1.1,1.1,1.1,0,0,1,1.1,1.1"/><path class="cls-1" d="M16.68,15.08a1.34,1.34,0,1,1-1.33-1.33,1.34,1.34,0,0,1,1.33,1.33"/><path class="cls-1" d="M19.65,10.52a1.33,1.33,0,1,1-1.33-1.33,1.33,1.33,0,0,1,1.33,1.33"/><path class="cls-1" d="M25.65,28.67a1.34,1.34,0,1,1-1.33-1.33,1.34,1.34,0,0,1,1.33,1.33"/><rect class="cls-1" x="16.02" y="14.62" width="19.72" height="0.82"/><rect class="cls-1" x="19.3" y="10.12" width="6.2" height="0.82"/><polygon class="cls-1" points="28.17 15.39 24.76 10.12 25.71 10.12 29.12 15.39 28.17 15.39"/><rect class="cls-1" x="25.36" y="19.34" width="3.16" height="0.82"/><polygon class="cls-1" points="27.77 20.16 30.6 15.39 31.41 15.39 28.58 20.16 27.77 20.16"/></g></g></svg>