<svg xmlns="http://www.w3.org/2000/svg" viewBox="0 0 97.63 90"><defs><style>.cls-1{fill:#fff;}</style></defs><title>Recurso 3</title><g id="Capa_2" data-name="Capa 2"><g id="Layer_1" data-name="Layer 1"><path class="cls-1" d="M97.07,86.75,84.82,74.5a9.73,9.73,0,0,0-5.07-2.7V47.1c.4,0,.8,0,1.2,0A14.42,14.42,0,0,0,95,29.54a1.92,1.92,0,0,0-1.44-1.44A14.36,14.36,0,0,0,80.16,32c-.14.13-.28.28-.41.42v-10A11.86,11.86,0,0,0,78.86,3a1.92,1.92,0,0,0-2,0,11.86,11.86,0,0,0-.88,19.45v2.5A12.84,12.84,0,0,0,64,21.51,1.91,1.91,0,0,0,62.6,23,12.87,12.87,0,0,0,75.12,38.66l.82,0v7.66q-.37-.43-.78-.84a15.66,15.66,0,0,0-14.4-4.24,6.11,6.11,0,0,0-6-5.23H42.47l-5.71-7.85a10.9,10.9,0,0,0-2.95-2.76,9.22,9.22,0,0,0,5.67-8.5V12.31h2.94a1.91,1.91,0,0,0,0-3.82H40v-3A5.45,5.45,0,0,0,34.57,0h-9a5.45,5.45,0,0,0-5.44,5.44V8.49H17.7a1.91,1.91,0,1,0,0,3.82h3.36v4.56a9.19,9.19,0,0,0,3.61,7.29,10.9,10.9,0,0,0-7.58,10.37V55.29a12.08,12.08,0,0,0,6.05,10.45V78H6A6,6,0,1,0,6,90H8.46a1.91,1.91,0,1,0,0-3.81H6A2.2,2.2,0,1,1,6,81.8h19A1.9,1.9,0,0,0,27,79.89V67.14a11.4,11.4,0,0,0,2.2.21h3.77V79.68a6.51,6.51,0,0,1-6.5,6.51h-2.7a1.91,1.91,0,1,0,0,3.81h2.7A10.33,10.33,0,0,0,36.74,79.68V67.35h7V84a6,6,0,1,0,12,0V63.31A10.32,10.32,0,0,0,45.41,53H36.22V48.1a1.9,1.9,0,0,0,.58.09H54.72a6,6,0,0,0,4.06-1.55,15.68,15.68,0,0,0,15.65,15.2c.5,0,1,0,1.51-.07v10a9.77,9.77,0,0,0-5,2.69L58.7,86.69a1.91,1.91,0,1,0,2.7,2.69L73.59,77.2a6,6,0,0,1,8.54,0L94.37,89.44a1.91,1.91,0,0,0,2.7-2.69ZM75.91,34.81A9.05,9.05,0,0,1,66.13,25a9.05,9.05,0,0,1,9.78,9.77Zm6.94-.15a10.57,10.57,0,0,1,8.62-3A10.61,10.61,0,0,1,79.8,43.28c0-.33,0-.65,0-1v-.37A10.58,10.58,0,0,1,82.85,34.66ZM77.84,7a8,8,0,0,1,0,12.1,8,8,0,0,1,0-12.1ZM35.67,16.87a5.4,5.4,0,0,1-10.79,0V12.31H35.67ZM23.93,5.44a1.63,1.63,0,0,1,1.62-1.63h9a1.63,1.63,0,0,1,1.62,1.63V8.49H23.93ZM45.41,56.8a6.51,6.51,0,0,1,6.5,6.51V84a2.2,2.2,0,1,1-4.39,0V65.44a1.91,1.91,0,0,0-1.9-1.91H29.15A8.26,8.26,0,0,1,21,56.8Zm9.31-12.42H37.66L34,40.21a1.91,1.91,0,0,0-2.85,2.54l1.31,1.46V53H20.9V34.53a7.06,7.06,0,0,1,12.77-4.16L40,39a1.89,1.89,0,0,0,1.54.79H54.72a2.3,2.3,0,0,1,0,4.59ZM75.86,57.94A11.86,11.86,0,0,1,62.67,44.76,11.87,11.87,0,0,1,75.94,56.43v.27C75.93,57.11,75.9,57.53,75.86,57.94Z"/></g></g></svg>