<svg xmlns="http://www.w3.org/2000/svg" viewBox="0 0 30 30"><defs><style>.cls-1{fill:#80bc00;}</style></defs><title>Recurso 9</title><g id="Capa_2" data-name="Capa 2"><g id="Layer_1" data-name="Layer 1"><path class="cls-1" d="M12.16,22.21a9.85,9.85,0,0,1-5.37-1.58L4.93,19.44l2.19.26a6,6,0,0,0,.74,0,6.11,6.11,0,0,0,2.8-.66A3.81,3.81,0,0,1,8.4,16.67l-.27-.81.18,0a3.81,3.81,0,0,1-1.1-2.69v-.06l0-.83.4.23a3.93,3.93,0,0,1-.41-1.73,3.83,3.83,0,0,1,.52-1.93l.37-.64.47.57a9,9,0,0,0,5.87,3.24,1.34,1.34,0,0,1,0-.2A3.84,3.84,0,0,1,20.88,9a5.9,5.9,0,0,0,1.69-.69l1.15-.68-.41,1.27a3.67,3.67,0,0,1-.32.73l.08,0,1.6-.71-1,1.46a7.41,7.41,0,0,1-1.57,1.69v.18A9.87,9.87,0,0,1,12.16,22.21ZM9.11,20.65a8.75,8.75,0,0,0,3.05.54,8.89,8.89,0,0,0,9-9c0-.14,0-.28,0-.41v-.27l.22-.16.41-.33-.3,0-2.37.29,2-1.23a2.26,2.26,0,0,0,.37-.26c-.22.07-.44.12-.66.17l-.27.05-.2-.21a2.82,2.82,0,0,0-4.87,1.93,2.67,2.67,0,0,0,.07.64l.16.66-.68,0a10,10,0,0,1-6.67-3,2.64,2.64,0,0,0-.1.74A2.81,2.81,0,0,0,9.5,13.15l1.48,1-1.77-.06A3.74,3.74,0,0,1,8.33,14a2.81,2.81,0,0,0,2.15,2l2.11.42L10.52,17a3.61,3.61,0,0,1-.81.13A2.83,2.83,0,0,0,12,18.32l1.43,0-1.13.88A7.08,7.08,0,0,1,9.11,20.65Z"/><path class="cls-1" d="M20.33,30H9.67A9.68,9.68,0,0,1,0,20.33V9.67A9.68,9.68,0,0,1,9.67,0H20.33A9.68,9.68,0,0,1,30,9.67V20.33A9.68,9.68,0,0,1,20.33,30ZM9.67,1A8.66,8.66,0,0,0,1,9.67V20.33A8.66,8.66,0,0,0,9.67,29H20.33A8.66,8.66,0,0,0,29,20.33V9.67A8.66,8.66,0,0,0,20.33,1Z"/></g></g></svg>