<svg xmlns="http://www.w3.org/2000/svg" viewBox="0 0 30 30"><defs><style>.cls-1{fill:#80bc00;}</style></defs><title>Recurso 11</title><g id="Capa_2" data-name="Capa 2"><g id="Layer_1" data-name="Layer 1"><path class="cls-1" d="M20.33,30H9.67A9.68,9.68,0,0,1,0,20.33V9.67A9.68,9.68,0,0,1,9.67,0H20.33A9.68,9.68,0,0,1,30,9.67V20.33A9.68,9.68,0,0,1,20.33,30ZM9.67,1A8.66,8.66,0,0,0,1,9.67V20.33A8.66,8.66,0,0,0,9.67,29H20.33A8.66,8.66,0,0,0,29,20.33V9.67A8.66,8.66,0,0,0,20.33,1Z"/><path class="cls-1" d="M20.78,21.82H9.35c-2.3,0-3.72-1.73-3.72-4.52V13c0-2.83,1.35-4.52,3.62-4.52H20.87c1.55,0,3.39.78,3.39,4.52V17.3C24.26,20.21,23,21.82,20.78,21.82ZM9.25,9.52C7,9.52,6.63,11.73,6.63,13V17.3c0,1.06.26,3.52,2.72,3.52H20.78c1.65,0,2.48-1.19,2.48-3.52V13c0-3.16-1.36-3.52-2.39-3.52Zm3.43,9.08V11.94l6.38,3.33Zm1-5V17l3.22-1.68Z"/></g></g></svg>