<svg xmlns="http://www.w3.org/2000/svg" viewBox="0 0 43.69 40"><defs><style>.cls-1{fill:#80bc00;}</style></defs><title>Recurso 15</title><g id="Capa_2" data-name="Capa 2"><g id="Layer_1" data-name="Layer 1"><path class="cls-1" d="M18.45,3.39a3.4,3.4,0,1,1,3.4,3.4,3.4,3.4,0,0,1-3.4-3.4M17.06,16.27V10.53a2.75,2.75,0,0,1,2.47-2.95h4.63a2.75,2.75,0,0,1,2.47,2.95v5.74a.78.78,0,0,1-.77.77h-8a.78.78,0,0,1-.78-.77m3.76-7.53L21,10.18c0,.05.08.09.16.09h1.29c.08,0,.15,0,.16-.09l.22-1.44c0-.06-.06-.11-.16-.11H21c-.09,0-.17,0-.16.11m-.37,5.9a.27.27,0,0,0,.09.24l1.14.94a.26.26,0,0,0,.33,0l1.14-.94a.27.27,0,0,0,.09-.24L22.68,11a.26.26,0,0,0-.26-.22H21.28A.26.26,0,0,0,21,11ZM5.51,23.15H15.78v3.9h.94v-3.9H27v3.9h.94v-3.9H38.18v3.9h.94V22.21H22.32V18.4h-.94v3.81H4.57v4.84h.94ZM2.09,39a5.16,5.16,0,0,0,1.4.72l.29-.9a4,4,0,0,1-1.14-.58Zm1.38-8.88.29.89A4.21,4.21,0,0,1,5,30.85v-.94a5.14,5.14,0,0,0-1.56.25m1.58,8.9V40a5.14,5.14,0,0,0,1.56-.25l-.29-.89a4.21,4.21,0,0,1-1.27.2M9,36.22l.89.29A4.81,4.81,0,0,0,10.09,35H9.15A4.12,4.12,0,0,1,9,36.22M6.59,30.15l-.29.9a4.12,4.12,0,0,1,1.15.57L8,30.86a5.05,5.05,0,0,0-1.41-.71m.87,8.13L8,39a4.92,4.92,0,0,0,1.12-1.11l-.76-.55a4.36,4.36,0,0,1-.91.91M9,33.67l.89-.29A5.37,5.37,0,0,0,9.12,32l-.76.56A4.12,4.12,0,0,1,9,33.67m-6.33-2-.55-.76A4.92,4.92,0,0,0,1,32l.76.55a3.89,3.89,0,0,1,.9-.91m-1.48,2-.9-.28A5,5,0,0,0,0,35H.94a4.15,4.15,0,0,1,.2-1.26M.25,36.52A5,5,0,0,0,1,37.93l.76-.56a4,4,0,0,1-.59-1.14Zm17.54-6.37-.29.9a4.12,4.12,0,0,1,1.15.57l.55-.76a5.05,5.05,0,0,0-1.41-.71m-1.54,8.91V40a5.09,5.09,0,0,0,1.56-.25l-.29-.89a4.16,4.16,0,0,1-1.27.2m-3,0a5.31,5.31,0,0,0,1.4.72l.29-.9a4.09,4.09,0,0,1-1.14-.58Zm-1.13-7,.76.55a4.09,4.09,0,0,1,.9-.91l-.55-.76A4.92,4.92,0,0,0,12.16,32m-.71,4.52a5,5,0,0,0,.72,1.41l.76-.56a4,4,0,0,1-.59-1.14Zm8.7-2.85.89-.29A5.37,5.37,0,0,0,20.32,32l-.76.56a4.12,4.12,0,0,1,.59,1.14m-7.81,0-.9-.28A5,5,0,0,0,11.2,35h.94a4.15,4.15,0,0,1,.2-1.26m2.33-3.53.3.89a4.1,4.1,0,0,1,1.26-.2v-.94a5.14,5.14,0,0,0-1.56.25m5.48,6.06.9.29A5.09,5.09,0,0,0,21.29,35h-.94a3.84,3.84,0,0,1-.2,1.27m-1.49,2.06.55.75a4.92,4.92,0,0,0,1.12-1.11l-.76-.55a4.13,4.13,0,0,1-.91.91M29,30.15l-.28.9a4.2,4.2,0,0,1,1.14.57l.55-.76A5.05,5.05,0,0,0,29,30.15m.87,8.13.56.75a5.08,5.08,0,0,0,1.11-1.11l-.76-.55a4.13,4.13,0,0,1-.91.91m1.49-2.06.9.29A5.09,5.09,0,0,0,32.49,35h-.94a3.84,3.84,0,0,1-.2,1.27m-8-4.22.76.55a3.93,3.93,0,0,1,.91-.91l-.56-.76A4.92,4.92,0,0,0,23.36,32m8,1.67.89-.29A5.08,5.08,0,0,0,31.52,32l-.76.56a3.87,3.87,0,0,1,.59,1.14m-8.7,2.85a5.22,5.22,0,0,0,.72,1.41l.76-.56a4,4,0,0,1-.59-1.14Zm4.8,2.54V40A5.09,5.09,0,0,0,29,39.75l-.29-.89a4.16,4.16,0,0,1-1.27.2m-3.91-5.37-.9-.28a4.91,4.91,0,0,0-.24,1.51v0h.94a4.15,4.15,0,0,1,.2-1.26m2.34-3.53.29.89a4.15,4.15,0,0,1,1.26-.2v-.94a5.08,5.08,0,0,0-1.55.25M24.49,39a5.31,5.31,0,0,0,1.4.72l.29-.9A4.09,4.09,0,0,1,25,38.28Zm16.57-.76.56.75a5.08,5.08,0,0,0,1.11-1.11L42,37.37a4.13,4.13,0,0,1-.91.91M42.75,35a3.84,3.84,0,0,1-.2,1.27l.9.29A5.09,5.09,0,0,0,43.69,35h-.94Zm-8.19-3,.76.55a3.93,3.93,0,0,1,.91-.91l-.56-.76A5.13,5.13,0,0,0,34.56,32m8.88,1.38A5.08,5.08,0,0,0,42.72,32l-.76.56a3.87,3.87,0,0,1,.59,1.14Zm-4.79,5.68V40a5.09,5.09,0,0,0,1.56-.25l-.29-.89a4.16,4.16,0,0,1-1.27.2m1.54-8.91-.28.9a4.2,4.2,0,0,1,1.14.57l.55-.76a5.05,5.05,0,0,0-1.41-.71m-6.34,6.37a5.22,5.22,0,0,0,.72,1.41l.76-.56a4,4,0,0,1-.59-1.14ZM34.54,35v0a4.35,4.35,0,0,1,.2-1.24l-.89-.28A5.07,5.07,0,0,0,33.6,35V35l.46-.07ZM35.69,39a5.22,5.22,0,0,0,1.41.72l.28-.9a4.09,4.09,0,0,1-1.14-.58Zm1.39-8.88.29.89a4.16,4.16,0,0,1,1.27-.2v-.94a5.08,5.08,0,0,0-1.55.25"/></g></g></svg>