<svg xmlns="http://www.w3.org/2000/svg" viewBox="0 0 30 30"><defs><style>.cls-1{fill:#80bc00;}</style></defs><title>Recurso 10</title><g id="Capa_2" data-name="Capa 2"><g id="Layer_1" data-name="Layer 1"><path class="cls-1" d="M20.33,30H9.67A9.68,9.68,0,0,1,0,20.33V9.67A9.68,9.68,0,0,1,9.67,0H20.33A9.68,9.68,0,0,1,30,9.67V20.33A9.68,9.68,0,0,1,20.33,30ZM9.67,1A8.66,8.66,0,0,0,1,9.67V20.33A8.66,8.66,0,0,0,9.67,29H20.33A8.66,8.66,0,0,0,29,20.33V9.67A8.66,8.66,0,0,0,20.33,1Z"/><path class="cls-1" d="M12.41,22.16H9V12.71h3.46ZM9.7,21.41h2V13.46h-2Zm1-9.14a1.95,1.95,0,1,1,1.94-1.95A1.95,1.95,0,0,1,10.68,12.27Zm0-3.14a1.2,1.2,0,1,0,1.19,1.19A1.2,1.2,0,0,0,10.68,9.13Z"/><path class="cls-1" d="M22.54,22.16H19.09v-4.6c0-1.31-.16-1.94-1-1.94s-1.25.51-1.25,1.86v4.68H13.35V12.71H16.7v.57a3.4,3.4,0,0,1,2.22-.79c3.19,0,3.62,2.29,3.62,4.52Zm-2.7-.75h1.95V17c0-2.33-.48-3.77-2.87-3.77a2.49,2.49,0,0,0-2.23,1.21l-.11.2H16l0-.38v-.81H14.1v8h2V17.48c0-.71,0-2.61,2-2.61,1.78,0,1.78,1.75,1.78,2.69Z"/></g></g></svg>