<svg xmlns="http://www.w3.org/2000/svg" viewBox="0 0 18.83 13.78"><defs><style>.cls-1{fill:#fff;}</style></defs><title>Recurso 21</title><g id="Capa_2" data-name="Capa 2"><g id="Layer_1" data-name="Layer 1"><path class="cls-1" d="M17.68,0H1.15A1.16,1.16,0,0,0,0,1.15V12.63a1.16,1.16,0,0,0,1.15,1.15H17.68a1.16,1.16,0,0,0,1.15-1.15V1.15A1.16,1.16,0,0,0,17.68,0M9.41,7.9,2.31,1.38H16.52ZM6.34,7l-5,4.43v-9Zm1,.94L8.62,9a1.1,1.1,0,0,0,.79.32,1.13,1.13,0,0,0,.8-.32l1.25-1.15,5.06,4.51H2.3ZM12.48,7l5-4.56v9Z"/></g></g></svg>