<svg xmlns="http://www.w3.org/2000/svg" viewBox="0 0 21.52 21.02"><defs><style>.cls-1{fill:#fff;}</style></defs><title>Recurso 20</title><g id="Capa_2" data-name="Capa 2"><g id="Layer_1" data-name="Layer 1"><path class="cls-1" d="M11.25,0a.75.75,0,0,0-.7.8.74.74,0,0,0,.8.7A8.51,8.51,0,0,1,20,10.17a.75.75,0,1,0,1.5,0h0A10,10,0,0,0,11.32,0h-.07m0,3.25a.76.76,0,0,0,.1,1.51,5.33,5.33,0,0,1,5.45,5.45.76.76,0,1,0,1.51,0h0a6.9,6.9,0,0,0-7-7h-.07M.75,4.51A.75.75,0,0,0,0,5.26,15.77,15.77,0,0,0,15.76,21a.75.75,0,0,0,.75-.75V15a.74.74,0,0,0-.55-.73l-4.08-1.08a.76.76,0,0,0-.93.52l-.3,1.14a10.72,10.72,0,0,1-2.57-1.86,10.72,10.72,0,0,1-1.86-2.57l1.14-.31a.74.74,0,0,0,.52-.92L6.79,5.06a.73.73,0,0,0-.72-.55ZM1.53,6h4l.75,2.8-1.33.36a.75.75,0,0,0-.53.92.49.49,0,0,0,0,.11A12.17,12.17,0,0,0,7,14a12.36,12.36,0,0,0,3.81,2.6.75.75,0,0,0,1-.39l0-.1.36-1.33,2.8.75v4a14.15,14.15,0,0,1-9.32-4.15A14.16,14.16,0,0,1,1.53,6m9.64,0a.74.74,0,0,0-.7.79.76.76,0,0,0,.8.71A2.66,2.66,0,0,1,14,10.24a.75.75,0,1,0,1.5,0h0A4.2,4.2,0,0,0,11.25,6h-.08"/></g></g></svg>