<svg xmlns="http://www.w3.org/2000/svg" viewBox="0 0 27.02 27.05"><defs><style>.cls-1{fill:#fff;}</style></defs><title>Recurso 19</title><g id="Capa_2" data-name="Capa 2"><g id="Layer_1" data-name="Layer 1"><path class="cls-1" d="M19.15,2.62A11.42,11.42,0,0,0,14.94.41a11.93,11.93,0,0,0-4.6-.32A10.44,10.44,0,0,0,6.42,1.24,10.34,10.34,0,0,0,4,2.91,11.68,11.68,0,0,0,1.24,6.39,11.52,11.52,0,0,0,0,11.66c0,.45,0,.8,0,1.16a12.1,12.1,0,0,0,1.12,4.06,11.42,11.42,0,0,0,2.74,3.59,11.45,11.45,0,0,0,3.48,2.22,12.2,12.2,0,0,0,6,.7,10.75,10.75,0,0,0,5.26-2.06.69.69,0,0,1,.43-.16.7.7,0,0,1,.5.24c1.75,1.74,3.49,3.48,5.2,5.23a1.31,1.31,0,0,0,1.36.35A1.39,1.39,0,0,0,27,26a1.35,1.35,0,0,0-.38-1.28l-5.17-5.17c-.38-.37-.4-.62-.12-1a12.09,12.09,0,0,0,1.49-2.79,12.12,12.12,0,0,0,.67-4.3A12.65,12.65,0,0,0,22.92,8a11.58,11.58,0,0,0-3.77-5.41m-.86,15.46a9.2,9.2,0,0,1-6.53,2.79,9.29,9.29,0,0,1-9.15-9.18,9.26,9.26,0,0,1,9.21-9.08,9.24,9.24,0,0,1,6.52,2.83,8.74,8.74,0,0,1,2.53,6.32,8.73,8.73,0,0,1-2.58,6.32"/></g></g></svg>