<svg xmlns="http://www.w3.org/2000/svg" viewBox="0 0 30 30"><defs><style>.cls-1{fill:#80bc00;}</style></defs><title>Recurso 7</title><g id="Capa_2" data-name="Capa 2"><g id="Layer_1" data-name="Layer 1"><path class="cls-1" d="M19.51,29.49h-1V17.7h3.19L22,15.09H18.49V12.27c0-1,.24-2.27,2.3-2.27h1.4V7.73c-.52-.05-1.36-.09-2.28-.09-2.6,0-4.15,1.59-4.15,4.27v3.18H12.65V17.7h3.11V29.49h-1V18.72H11.63V14.07h3.12V11.91c0-3.26,2-5.29,5.16-5.29a24.79,24.79,0,0,1,2.85.15l.45.05V11H20.79c-1.1,0-1.28.37-1.28,1.26v1.8h3.66l-.6,4.65H19.51Z"/><path class="cls-1" d="M20.33,30H9.67A9.68,9.68,0,0,1,0,20.33V9.67A9.68,9.68,0,0,1,9.67,0H20.33A9.68,9.68,0,0,1,30,9.67V20.33A9.68,9.68,0,0,1,20.33,30ZM9.67,1A8.66,8.66,0,0,0,1,9.67V20.33A8.66,8.66,0,0,0,9.67,29H20.33A8.66,8.66,0,0,0,29,20.33V9.67A8.66,8.66,0,0,0,20.33,1Z"/></g></g></svg>