<svg xmlns="http://www.w3.org/2000/svg" viewBox="0 0 30 30"><defs><style>.cls-1{fill:#80bc00;}</style></defs><title>Recurso 8</title><g id="Capa_2" data-name="Capa 2"><g id="Layer_1" data-name="Layer 1"><path class="cls-1" d="M20.33,30H9.67A9.68,9.68,0,0,1,0,20.33V9.67A9.68,9.68,0,0,1,9.67,0H20.33A9.68,9.68,0,0,1,30,9.67V20.33A9.68,9.68,0,0,1,20.33,30ZM9.67,1A8.66,8.66,0,0,0,1,9.67V20.33A8.66,8.66,0,0,0,9.67,29H20.33A8.66,8.66,0,0,0,29,20.33V9.67A8.66,8.66,0,0,0,20.33,1Z"/><path class="cls-1" d="M19.5,11.44a.83.83,0,1,1-.83-.83A.83.83,0,0,1,19.5,11.44Z"/><path class="cls-1" d="M21.84,12.27a4.75,4.75,0,0,0-.32-1.67,3.26,3.26,0,0,0-.79-1.21,3.2,3.2,0,0,0-1.22-.8,5,5,0,0,0-1.67-.32c-.74,0-1,0-2.84,0s-2.1,0-2.84,0a5,5,0,0,0-1.67.32,3.2,3.2,0,0,0-1.22.8,3.26,3.26,0,0,0-.79,1.21,4.75,4.75,0,0,0-.32,1.67c0,.74-.05,1-.05,2.84s0,2.11.05,2.84a4.76,4.76,0,0,0,.32,1.68,3.47,3.47,0,0,0,.79,1.22,3.57,3.57,0,0,0,1.22.79,5.25,5.25,0,0,0,1.67.32c.74,0,1,0,2.84,0s2.1,0,2.84,0a5.25,5.25,0,0,0,1.67-.32,3.49,3.49,0,0,0,2-2A4.76,4.76,0,0,0,21.84,18c0-.73.05-1,.05-2.84S21.88,13,21.84,12.27ZM20.61,17.9a3.81,3.81,0,0,1-.24,1.27,2.28,2.28,0,0,1-1.31,1.31,3.58,3.58,0,0,1-1.28.24c-.72,0-.94,0-2.78,0s-2.06,0-2.78,0a3.64,3.64,0,0,1-1.28-.24,2.07,2.07,0,0,1-.79-.51,2.21,2.21,0,0,1-.52-.8,3.81,3.81,0,0,1-.24-1.27c0-.73,0-.95,0-2.79s0-2,0-2.78a4,4,0,0,1,.24-1.28,2.09,2.09,0,0,1,.52-.79,2.07,2.07,0,0,1,.79-.51,3.64,3.64,0,0,1,1.28-.24c.72,0,.94,0,2.78,0s2.06,0,2.78,0a3.58,3.58,0,0,1,1.28.24,2.07,2.07,0,0,1,.79.51,2.09,2.09,0,0,1,.52.79,4,4,0,0,1,.24,1.28c0,.73,0,.94,0,2.78S20.64,17.17,20.61,17.9Z"/><path class="cls-1" d="M15,11.58a3.54,3.54,0,1,0,3.54,3.53A3.53,3.53,0,0,0,15,11.58Zm0,5.83a2.3,2.3,0,1,1,2.29-2.3A2.29,2.29,0,0,1,15,17.41Z"/></g></g></svg>