<svg xmlns="http://www.w3.org/2000/svg" viewBox="0 0 90.22 90"><defs><style>.cls-1{fill:#fff;}</style></defs><title>Recurso 6</title><g id="Capa_2" data-name="Capa 2"><g id="Layer_1" data-name="Layer 1"><path class="cls-1" d="M89.47,82.26l-6.42-4.5a1.78,1.78,0,0,0-2.8,1.45v3.18H67.32V64.71h1.55a9.84,9.84,0,0,0,9.83-9.83v-.49a2.93,2.93,0,0,0-2.93-2.93H74.5a9.8,9.8,0,0,0-7.18,3.13V42.4h3.81A11.78,11.78,0,0,0,82.9,30.63a2.3,2.3,0,0,0-2.29-2.3H75.23A1.32,1.32,0,0,0,75.29,31h5a9.14,9.14,0,0,1-9.12,8.77H67.32v-.62a8.1,8.1,0,0,1,3.12-6.41,1.32,1.32,0,1,0-1.64-2.08,10.88,10.88,0,0,0-3.22,4.14A7.62,7.62,0,0,0,59.67,32H57.23a2.77,2.77,0,0,0-2.77,2.77,7.66,7.66,0,0,0,7.65,7.65h2.56v40H55.9a1.33,1.33,0,0,0,0,2.65H80.25v3.18a1.78,1.78,0,0,0,1,1.58A1.84,1.84,0,0,0,82,90a1.79,1.79,0,0,0,1-.32l6.42-4.51a1.77,1.77,0,0,0,.75-1.45,1.79,1.79,0,0,0-.75-1.46ZM57.11,34.75a.12.12,0,0,1,.12-.13h2.44a5,5,0,0,1,5,5v.12H62.11A5,5,0,0,1,57.11,34.75ZM74.5,54.11h1.27a.28.28,0,0,1,.28.28v.49a7.19,7.19,0,0,1-7.18,7.18H67.32v-.77a7.19,7.19,0,0,1,7.18-7.18Zm8.4,32.44V80.89l4,2.83Z"/><path class="cls-1" d="M50.26,82.39H46.52V66.57h1.95a9,9,0,0,0,9-9V56A3.07,3.07,0,0,0,54.41,53H52.88a9,9,0,0,0-8.15,5.19,6.42,6.42,0,0,0-4.63-2H38.43a2.29,2.29,0,0,0-2.28,2.29v1.67a6.43,6.43,0,0,0,6.42,6.42h1.31V82.39H27.5V77.91h1a7.45,7.45,0,0,0,7.43-7.43V68.84a2.66,2.66,0,0,0-2.66-2.65h-1A7.45,7.45,0,0,0,25.78,70a5.78,5.78,0,0,0-4.08-1.68H20.41a2.07,2.07,0,0,0-2.07,2.07v1.7a5.81,5.81,0,0,0,5.8,5.8h.71v4.48H8.14V70.6H9.49a1.33,1.33,0,0,0,0-2.65H8.14V57.86H9.49a1.32,1.32,0,0,0,0-2.64H8.14V45.13H9.49a1.33,1.33,0,0,0,0-2.65H8.14V32.4H9.49a1.33,1.33,0,0,0,0-2.65H8.14V19.67H9.49a1.33,1.33,0,0,0,0-2.65H8.14V10h3.18a1.78,1.78,0,0,0,1.46-2.8L8.27.76A1.75,1.75,0,0,0,6.82,0h0A1.78,1.78,0,0,0,5.36.76L.86,7.17A1.78,1.78,0,0,0,2.32,10H5.49V82.39H1.32a1.33,1.33,0,0,0,0,2.65H50.26a1.33,1.33,0,0,0,0-2.65ZM46.52,62a6.37,6.37,0,0,1,6.36-6.36h1.53a.42.42,0,0,1,.42.42v1.52a6.36,6.36,0,0,1-6.36,6.36H46.52V62Zm-7.73-1.83V58.84H40.1a3.78,3.78,0,0,1,3.78,3.77v1.31H42.57A3.78,3.78,0,0,1,38.79,60.15ZM27.5,73.62a4.78,4.78,0,0,1,4.78-4.78h1v1.64a4.79,4.79,0,0,1-4.78,4.78h-1V73.62ZM21,72.11V71h.71a3.16,3.16,0,0,1,3.15,3.16v1.12h-.71A3.16,3.16,0,0,1,21,72.11ZM6.82,3.29l2.83,4H4Z"/><path class="cls-1" d="M65.22,8l-5.48-.67A1.32,1.32,0,0,0,59.42,10l2.33.28L38,29l-1-2.22a1.31,1.31,0,0,0-2-.46L14.53,43a1.32,1.32,0,0,0,.83,2.34A1.3,1.3,0,0,0,16.2,45L35.25,29.45l1,2.19a1.33,1.33,0,0,0,2,.47L63.74,12v3.11a1.33,1.33,0,0,0,2.65,0V9.31A1.34,1.34,0,0,0,65.22,8Z"/></g></g></svg>