<svg xmlns="http://www.w3.org/2000/svg" viewBox="0 0 11.31 15.49"><defs><style>.cls-1{fill:#fff;}</style></defs><title>Recurso 23</title><g id="Capa_2" data-name="Capa 2"><g id="Layer_1" data-name="Layer 1"><path class="cls-1" d="M5.65,2.44a3.21,3.21,0,1,0,3.21,3.2,3.2,3.2,0,0,0-3.21-3.2m0,5.62A2.42,2.42,0,1,1,8.07,5.64,2.41,2.41,0,0,1,5.65,8.06"/><path class="cls-1" d="M5.65,0A5.66,5.66,0,0,0,.54,8.07a5.38,5.38,0,0,0,.38.66L5.3,15.29a.46.46,0,0,0,.35.2A.45.45,0,0,0,6,15.3l4.35-6.52A6.41,6.41,0,0,0,10.79,8,5.66,5.66,0,0,0,8,.51,5.79,5.79,0,0,0,5.65,0m4.43,7.68a4.66,4.66,0,0,1-.39.65l-4,6.07L1.58,8.3a4,4,0,0,1-.32-.57,4.86,4.86,0,1,1,8.82-.05Z"/></g></g></svg>